<svg height="2734" width="720" xmlns="http://www.w3.org/2000/svg">
<rect height="2734" fill="#555" width="720"></rect>
<text fill="#7f7" font-family="Courier New" font-size="12" xml:space="preserve">
<tspan x="10" y="26">15 megabytes installed</tspan>
<tspan x="10" y="42"></tspan>
<tspan x="10" y="58">node_modules</tspan>
<tspan x="10" y="74">├── raspi-gpio@3.1.1 </tspan>
<tspan x="10" y="90">├─┬ raspi-i2c@5.0.3 </tspan>
<tspan x="10" y="106">│ ├─┬ i2c-bus@1.2.1 </tspan>
<tspan x="10" y="122">│ │ └── nan@2.5.1 </tspan>
<tspan x="10" y="138">│ ├── ini-builder@1.0.3 </tspan>
<tspan x="10" y="154">│ └── raspi-board@4.2.0 </tspan>
<tspan x="10" y="170">├── raspi-io-core@1.1.1 </tspan>
<tspan x="10" y="186">├── raspi-led@1.5.5 </tspan>
<tspan x="10" y="202">├─┬ raspi-pwm@3.1.3 </tspan>
<tspan x="10" y="218">│ └── nan@2.6.2 </tspan>
<tspan x="10" y="234">├─┬ raspi-serial@3.1.0 </tspan>
<tspan x="10" y="250">│ ├── raspi-peripheral@1.6.4 </tspan>
<tspan x="10" y="266">│ └─┬ serialport@4.0.7 </tspan>
<tspan x="10" y="282">│   ├── bindings@1.2.1 </tspan>
<tspan x="10" y="298">│   ├─┬ commander@2.9.0 </tspan>
<tspan x="10" y="314">│   │ └── graceful-readlink@1.0.1 </tspan>
<tspan x="10" y="330">│   ├─┬ debug@2.6.4 </tspan>
<tspan x="10" y="346">│   │ └── ms@0.7.3 </tspan>
<tspan x="10" y="362">│   ├─┬ lie@3.1.1 </tspan>
<tspan x="10" y="378">│   │ └── immediate@3.0.6 </tspan>
<tspan x="10" y="394">│   ├─┬ node-pre-gyp@0.6.32 </tspan>
<tspan x="10" y="410">│   │ ├─┬ mkdirp@0.5.1 </tspan>
<tspan x="10" y="426">│   │ │ └── minimist@0.0.8 </tspan>
<tspan x="10" y="442">│   │ ├─┬ nopt@3.0.6 </tspan>
<tspan x="10" y="458">│   │ │ └── abbrev@1.0.9 </tspan>
<tspan x="10" y="474">│   │ ├─┬ npmlog@4.0.1 </tspan>
<tspan x="10" y="490">│   │ │ ├─┬ are-we-there-yet@1.1.2 </tspan>
<tspan x="10" y="506">│   │ │ │ ├── delegates@1.0.0 </tspan>
<tspan x="10" y="522">│   │ │ │ └─┬ readable-stream@2.2.2 </tspan>
<tspan x="10" y="538">│   │ │ │   ├── buffer-shims@1.0.0 </tspan>
<tspan x="10" y="554">│   │ │ │   ├── core-util-is@1.0.2 </tspan>
<tspan x="10" y="570">│   │ │ │   ├── inherits@2.0.3 </tspan>
<tspan x="10" y="586">│   │ │ │   ├── isarray@1.0.0 </tspan>
<tspan x="10" y="602">│   │ │ │   ├── process-nextick-args@1.0.7 </tspan>
<tspan x="10" y="618">│   │ │ │   ├── string_decoder@0.10.31 </tspan>
<tspan x="10" y="634">│   │ │ │   └── util-deprecate@1.0.2 </tspan>
<tspan x="10" y="650">│   │ │ ├── console-control-strings@1.1.0 </tspan>
<tspan x="10" y="666">│   │ │ ├─┬ gauge@2.7.2 </tspan>
<tspan x="10" y="682">│   │ │ │ ├── aproba@1.0.4 </tspan>
<tspan x="10" y="698">│   │ │ │ ├── has-unicode@2.0.1 </tspan>
<tspan x="10" y="714">│   │ │ │ ├── object-assign@4.1.0 </tspan>
<tspan x="10" y="730">│   │ │ │ ├── signal-exit@3.0.2 </tspan>
<tspan x="10" y="746">│   │ │ │ ├─┬ string-width@1.0.2 </tspan>
<tspan x="10" y="762">│   │ │ │ │ ├── code-point-at@1.1.0 </tspan>
<tspan x="10" y="778">│   │ │ │ │ └─┬ is-fullwidth-code-point@1.0.0 </tspan>
<tspan x="10" y="794">│   │ │ │ │   └── number-is-nan@1.0.1 </tspan>
<tspan x="10" y="810">│   │ │ │ ├─┬ strip-ansi@3.0.1 </tspan>
<tspan x="10" y="826">│   │ │ │ │ └── ansi-regex@2.0.0 </tspan>
<tspan x="10" y="842">│   │ │ │ ├── supports-color@0.2.0 </tspan>
<tspan x="10" y="858">│   │ │ │ └── wide-align@1.1.0 </tspan>
<tspan x="10" y="874">│   │ │ └── set-blocking@2.0.0 </tspan>
<tspan x="10" y="890">│   │ ├─┬ rc@1.1.6 </tspan>
<tspan x="10" y="906">│   │ │ ├── deep-extend@0.4.1 </tspan>
<tspan x="10" y="922">│   │ │ ├── ini@1.3.4 </tspan>
<tspan x="10" y="938">│   │ │ ├── minimist@1.2.0 </tspan>
<tspan x="10" y="954">│   │ │ └── strip-json-comments@1.0.4 </tspan>
<tspan x="10" y="970">│   │ ├─┬ request@2.79.0 </tspan>
<tspan x="10" y="986">│   │ │ ├── aws-sign2@0.6.0 </tspan>
<tspan x="10" y="1002">│   │ │ ├── aws4@1.5.0 </tspan>
<tspan x="10" y="1018">│   │ │ ├── caseless@0.11.0 </tspan>
<tspan x="10" y="1034">│   │ │ ├─┬ combined-stream@1.0.5 </tspan>
<tspan x="10" y="1050">│   │ │ │ └── delayed-stream@1.0.0 </tspan>
<tspan x="10" y="1066">│   │ │ ├── extend@3.0.0 </tspan>
<tspan x="10" y="1082">│   │ │ ├── forever-agent@0.6.1 </tspan>
<tspan x="10" y="1098">│   │ │ ├─┬ form-data@2.1.2 </tspan>
<tspan x="10" y="1114">│   │ │ │ └── asynckit@0.4.0 </tspan>
<tspan x="10" y="1130">│   │ │ ├─┬ har-validator@2.0.6 </tspan>
<tspan x="10" y="1146">│   │ │ │ ├─┬ chalk@1.1.3 </tspan>
<tspan x="10" y="1162">│   │ │ │ │ ├── ansi-styles@2.2.1 </tspan>
<tspan x="10" y="1178">│   │ │ │ │ ├── escape-string-regexp@1.0.5 </tspan>
<tspan x="10" y="1194">│   │ │ │ │ ├─┬ has-ansi@2.0.0 </tspan>
<tspan x="10" y="1210">│   │ │ │ │ │ └── ansi-regex@2.0.0 </tspan>
<tspan x="10" y="1226">│   │ │ │ │ ├─┬ strip-ansi@3.0.1 </tspan>
<tspan x="10" y="1242">│   │ │ │ │ │ └── ansi-regex@2.0.0 </tspan>
<tspan x="10" y="1258">│   │ │ │ │ └── supports-color@2.0.0 </tspan>
<tspan x="10" y="1274">│   │ │ │ ├─┬ is-my-json-valid@2.15.0 </tspan>
<tspan x="10" y="1290">│   │ │ │ │ ├── generate-function@2.0.0 </tspan>
<tspan x="10" y="1306">│   │ │ │ │ ├─┬ generate-object-property@1.2.0 </tspan>
<tspan x="10" y="1322">│   │ │ │ │ │ └── is-property@1.0.2 </tspan>
<tspan x="10" y="1338">│   │ │ │ │ ├── jsonpointer@4.0.0 </tspan>
<tspan x="10" y="1354">│   │ │ │ │ └── xtend@4.0.1 </tspan>
<tspan x="10" y="1370">│   │ │ │ └─┬ pinkie-promise@2.0.1 </tspan>
<tspan x="10" y="1386">│   │ │ │   └── pinkie@2.0.4 </tspan>
<tspan x="10" y="1402">│   │ │ ├─┬ hawk@3.1.3 </tspan>
<tspan x="10" y="1418">│   │ │ │ ├── boom@2.10.1 </tspan>
<tspan x="10" y="1434">│   │ │ │ ├── cryptiles@2.0.5 </tspan>
<tspan x="10" y="1450">│   │ │ │ ├── hoek@2.16.3 </tspan>
<tspan x="10" y="1466">│   │ │ │ └── sntp@1.0.9 </tspan>
<tspan x="10" y="1482">│   │ │ ├─┬ http-signature@1.1.1 </tspan>
<tspan x="10" y="1498">│   │ │ │ ├── assert-plus@0.2.0 </tspan>
<tspan x="10" y="1514">│   │ │ │ ├─┬ jsprim@1.3.1 </tspan>
<tspan x="10" y="1530">│   │ │ │ │ ├── extsprintf@1.0.2 </tspan>
<tspan x="10" y="1546">│   │ │ │ │ ├── json-schema@0.2.3 </tspan>
<tspan x="10" y="1562">│   │ │ │ │ └── verror@1.3.6 </tspan>
<tspan x="10" y="1578">│   │ │ │ └─┬ sshpk@1.10.1 </tspan>
<tspan x="10" y="1594">│   │ │ │   ├── asn1@0.2.3 </tspan>
<tspan x="10" y="1610">│   │ │ │   ├── assert-plus@1.0.0 </tspan>
<tspan x="10" y="1626">│   │ │ │   ├── bcrypt-pbkdf@1.0.0 </tspan>
<tspan x="10" y="1642">│   │ │ │   ├── dashdash@1.14.1 </tspan>
<tspan x="10" y="1658">│   │ │ │   ├── ecc-jsbn@0.1.1 </tspan>
<tspan x="10" y="1674">│   │ │ │   ├── getpass@0.1.6 </tspan>
<tspan x="10" y="1690">│   │ │ │   ├── jodid25519@1.0.2 </tspan>
<tspan x="10" y="1706">│   │ │ │   ├── jsbn@0.1.0 </tspan>
<tspan x="10" y="1722">│   │ │ │   └── tweetnacl@0.14.4 </tspan>
<tspan x="10" y="1738">│   │ │ ├── is-typedarray@1.0.0 </tspan>
<tspan x="10" y="1754">│   │ │ ├── isstream@0.1.2 </tspan>
<tspan x="10" y="1770">│   │ │ ├── json-stringify-safe@5.0.1 </tspan>
<tspan x="10" y="1786">│   │ │ ├─┬ mime-types@2.1.13 </tspan>
<tspan x="10" y="1802">│   │ │ │ └── mime-db@1.25.0 </tspan>
<tspan x="10" y="1818">│   │ │ ├── oauth-sign@0.8.2 </tspan>
<tspan x="10" y="1834">│   │ │ ├── qs@6.3.0 </tspan>
<tspan x="10" y="1850">│   │ │ ├── stringstream@0.0.5 </tspan>
<tspan x="10" y="1866">│   │ │ ├─┬ tough-cookie@2.3.2 </tspan>
<tspan x="10" y="1882">│   │ │ │ └── punycode@1.4.1 </tspan>
<tspan x="10" y="1898">│   │ │ ├── tunnel-agent@0.4.3 </tspan>
<tspan x="10" y="1914">│   │ │ └── uuid@3.0.1 </tspan>
<tspan x="10" y="1930">│   │ ├─┬ rimraf@2.5.4 </tspan>
<tspan x="10" y="1946">│   │ │ └─┬ glob@7.1.1 </tspan>
<tspan x="10" y="1962">│   │ │   ├── fs.realpath@1.0.0 </tspan>
<tspan x="10" y="1978">│   │ │   ├─┬ inflight@1.0.6 </tspan>
<tspan x="10" y="1994">│   │ │   │ └── wrappy@1.0.2 </tspan>
<tspan x="10" y="2010">│   │ │   ├── inherits@2.0.3 </tspan>
<tspan x="10" y="2026">│   │ │   ├─┬ minimatch@3.0.3 </tspan>
<tspan x="10" y="2042">│   │ │   │ └─┬ brace-expansion@1.1.6 </tspan>
<tspan x="10" y="2058">│   │ │   │   ├── balanced-match@0.4.2 </tspan>
<tspan x="10" y="2074">│   │ │   │   └── concat-map@0.0.1 </tspan>
<tspan x="10" y="2090">│   │ │   ├─┬ once@1.4.0 </tspan>
<tspan x="10" y="2106">│   │ │   │ └── wrappy@1.0.2 </tspan>
<tspan x="10" y="2122">│   │ │   └── path-is-absolute@1.0.1 </tspan>
<tspan x="10" y="2138">│   │ ├── semver@5.3.0 </tspan>
<tspan x="10" y="2154">│   │ ├─┬ tar@2.2.1 </tspan>
<tspan x="10" y="2170">│   │ │ ├── block-stream@0.0.9 </tspan>
<tspan x="10" y="2186">│   │ │ ├─┬ fstream@1.0.10 </tspan>
<tspan x="10" y="2202">│   │ │ │ └── graceful-fs@4.1.11 </tspan>
<tspan x="10" y="2218">│   │ │ └── inherits@2.0.3 </tspan>
<tspan x="10" y="2234">│   │ └─┬ tar-pack@3.3.0 </tspan>
<tspan x="10" y="2250">│   │   ├─┬ debug@2.2.0 </tspan>
<tspan x="10" y="2266">│   │   │ └── ms@0.7.1 </tspan>
<tspan x="10" y="2282">│   │   ├─┬ fstream@1.0.10 </tspan>
<tspan x="10" y="2298">│   │   │ ├── graceful-fs@4.1.11 </tspan>
<tspan x="10" y="2314">│   │   │ └── inherits@2.0.3 </tspan>
<tspan x="10" y="2330">│   │   ├─┬ fstream-ignore@1.0.5 </tspan>
<tspan x="10" y="2346">│   │   │ ├── inherits@2.0.3 </tspan>
<tspan x="10" y="2362">│   │   │ └─┬ minimatch@3.0.3 </tspan>
<tspan x="10" y="2378">│   │   │   └─┬ brace-expansion@1.1.6 </tspan>
<tspan x="10" y="2394">│   │   │     ├── balanced-match@0.4.2 </tspan>
<tspan x="10" y="2410">│   │   │     └── concat-map@0.0.1 </tspan>
<tspan x="10" y="2426">│   │   ├─┬ once@1.3.3 </tspan>
<tspan x="10" y="2442">│   │   │ └── wrappy@1.0.2 </tspan>
<tspan x="10" y="2458">│   │   ├─┬ readable-stream@2.1.5 </tspan>
<tspan x="10" y="2474">│   │   │ ├── buffer-shims@1.0.0 </tspan>
<tspan x="10" y="2490">│   │   │ ├── core-util-is@1.0.2 </tspan>
<tspan x="10" y="2506">│   │   │ ├── inherits@2.0.3 </tspan>
<tspan x="10" y="2522">│   │   │ ├── isarray@1.0.0 </tspan>
<tspan x="10" y="2538">│   │   │ ├── process-nextick-args@1.0.7 </tspan>
<tspan x="10" y="2554">│   │   │ ├── string_decoder@0.10.31 </tspan>
<tspan x="10" y="2570">│   │   │ └── util-deprecate@1.0.2 </tspan>
<tspan x="10" y="2586">│   │   └── uid-number@0.0.6 </tspan>
<tspan x="10" y="2602">│   └─┬ object.assign@4.0.4 </tspan>
<tspan x="10" y="2618">│     ├─┬ define-properties@1.1.2 </tspan>
<tspan x="10" y="2634">│     │ └── foreach@2.0.5 </tspan>
<tspan x="10" y="2650">│     ├── function-bind@1.1.0 </tspan>
<tspan x="10" y="2666">│     └── object-keys@1.0.11 </tspan>
<tspan x="10" y="2682">└─┬ raspi-soft-pwm@2.0.2 </tspan>
<tspan x="10" y="2698">  └─┬ pigpio@0.3.4 </tspan>
<tspan x="10" y="2714">    └── nan@2.3.5</tspan>
</text>
</svg>
